<svg width="32" height="32" viewBox="0 0 32 32" fill="none" xmlns="http://www.w3.org/2000/svg">
<g id="logo" clip-path="url(#clip0_998_654)">
<path id="image 8 (Traced)" fill-rule="evenodd" clip-rule="evenodd" d="M13.9648 0.0811205C10.9572 0.507591 8.41991 1.57706 6.02782 3.42651C4.78841 4.38472 3.30222 6.04807 2.35141 7.54107C1.63205 8.6706 0.842746 10.4988 0.483422 11.8675C0.071369 13.4372 0 14.0485 0 16.0093C0 17.97 0.071369 18.5813 0.483422 20.151C1.46343 23.8841 3.87592 27.2189 7.19548 29.4289C8.95345 30.5993 11.1003 31.4408 13.3712 31.8495C14.1123 31.9829 14.4119 32 16 32C17.5755 32 17.8909 31.9822 18.6072 31.8531C22.0653 31.2297 24.9342 29.7551 27.3113 27.3792C29.7458 24.9458 31.2265 22.0931 31.8494 18.6365C31.9829 17.8959 32 17.5964 32 16.0093C32 14.4346 31.9822 14.1194 31.853 13.4036C31.5423 11.6821 31.1458 10.4604 30.4047 8.94158C29.6113 7.31549 28.6649 5.99563 27.3426 4.67134C24.9485 2.27341 22.0836 0.79258 18.6397 0.172773C17.6339 -0.00825046 14.9643 -0.0605588 13.9648 0.0811205Z" fill="#4DCD38"/>
<path id="image 8 (Traced)_2" d="M13.9 10C15.0966 11.7568 18.0492 16.2891 18.2179 16.5922C18.1356 16.2377 18.1682 10 18.1682 10H23V22L18.1341 21.99L13.9512 15.8137V22H11.4756H9V10H13.9Z" fill="#F5F5F5"/>
</g>
<defs>
<clipPath id="clip0_998_654">
<rect width="32" height="32" fill="white"/>
</clipPath>
</defs>
</svg>
